<?xml version="1.0" encoding="UTF-8"?>
<svg xmlns="http://www.w3.org/2000/svg" xmlns:xlink="http://www.w3.org/1999/xlink" width="135pt" height="82pt" viewBox="0 0 135 82" version="1.1">
<defs>
<clipPath id="clip1">
  <rect x="0" y="0" width="3" height="2"/>
</clipPath>
<g id="surface5" clip-path="url(#clip1)">
<path style=" stroke:none;fill-rule:nonzero;fill:rgb(0%,0%,0%);fill-opacity:1;" d="M 0 -1 L 2 -1 L 2 3 L 0 3 Z M 0 -1 "/>
</g>
<pattern id="pattern0" patternUnits="userSpaceOnUse" width="3" height="2" patternTransform="matrix(5,0,0,5,-0.000000000000028422,-0.000000000000000007)">
<use xlink:href="#surface5"/>
</pattern>
<clipPath id="clip2">
  <rect x="0" y="0" width="3" height="2"/>
</clipPath>
<g id="surface8" clip-path="url(#clip2)">
<path style=" stroke:none;fill-rule:nonzero;fill:rgb(0%,0%,0%);fill-opacity:1;" d="M 0 -1 L 2 -1 L 2 3 L 0 3 Z M 0 -1 "/>
</g>
<pattern id="pattern1" patternUnits="userSpaceOnUse" width="3" height="2" patternTransform="matrix(5,0,0,5,0,0)">
<use xlink:href="#surface8"/>
</pattern>
</defs>
<g id="surface1">
<path style="fill-rule:nonzero;fill:rgb(0%,0%,0%);fill-opacity:1;stroke-width:0.795;stroke-linecap:butt;stroke-linejoin:miter;stroke:rgb(0%,0%,0%);stroke-opacity:1;stroke-miterlimit:4;" d="M 316.00599 264.03125 L 195.001071 262.921875 " transform="matrix(0.249538,0,0,0.25,0,0)"/>
<path style="fill:none;stroke-width:1.087;stroke-linecap:butt;stroke-linejoin:miter;stroke:rgb(0%,0%,0%);stroke-opacity:1;stroke-miterlimit:4;" d="M 264.410619 91.359375 C 264.410619 86.3125 260.246672 82.203125 255.112182 82.203125 C 249.962037 82.203125 245.79809 86.3125 245.79809 91.359375 C 245.79809 96.421875 249.962037 100.53125 255.112182 100.53125 C 260.246672 100.53125 264.410619 96.421875 264.410619 91.359375 Z M 264.410619 91.359375 " transform="matrix(0.249538,0,0,0.25,0,0)"/>
<path style=" stroke:none;fill-rule:nonzero;fill:rgb(0%,0%,0%);fill-opacity:1;" d="M 63.664062 0 C 63.890625 0 64.078125 4.617188 64.082031 10.308594 C 64.082031 13.460938 64.027344 16.285156 63.941406 18.175781 C 63.871094 19.695312 63.777344 20.617188 63.675781 20.617188 C 63.574219 20.617188 63.480469 19.699219 63.40625 18.175781 C 63.316406 16.285156 63.257812 13.460938 63.257812 10.308594 C 63.253906 4.617188 63.4375 0 63.664062 0 Z M 63.664062 0 "/>
<path style="fill-rule:nonzero;fill:rgb(0%,0%,0%);fill-opacity:1;stroke-width:1;stroke-linecap:butt;stroke-linejoin:miter;stroke:rgb(0%,0%,0%);stroke-opacity:1;stroke-miterlimit:4;" d="M 255.253067 100.609375 L 255.253067 110.734375 M 255.753993 110.921875 C 253.844213 110.6875 252.247512 112.09375 250.901273 113.609375 C 249.539381 115.109375 248.427951 116.703125 247.504369 118.203125 C 246.596441 119.703125 245.892014 121.109375 245.093663 122.625 C 244.295312 124.125 243.418692 125.71875 244.279659 125.859375 C 245.156279 126 247.770486 124.71875 249.993345 123.953125 C 252.20055 123.1875 253.985098 122.9375 255.910532 123.078125 C 257.835966 123.21875 259.855324 123.703125 262.156453 124.703125 C 264.457581 125.6875 267.009172 127.15625 267.056134 125.609375 C 267.103096 124.0625 264.629774 119.5 262.26603 116.265625 C 259.91794 113.046875 257.679427 111.15625 255.753993 110.921875 Z M 255.753993 110.921875 " transform="matrix(0.249538,0,0,0.25,0,0)"/>
<path style="fill-rule:nonzero;fill:rgb(0%,0%,0%);fill-opacity:1;stroke-width:1.002;stroke-linecap:butt;stroke-linejoin:miter;stroke:rgb(0%,0%,0%);stroke-opacity:1;stroke-miterlimit:4;" d="M 210.498466 314.875 L 301.259983 314.875 C 304.030729 314.875 306.269242 317.09375 306.269242 319.828125 C 306.269242 322.5625 304.030729 324.78125 301.259983 324.78125 L 210.498466 324.78125 C 207.743374 324.78125 205.504861 322.5625 205.504861 319.828125 C 205.504861 317.09375 207.743374 314.875 210.498466 314.875 Z M 210.498466 314.875 " transform="matrix(0.249538,0,0,0.25,0,0)"/>
<path style="fill:none;stroke-width:1;stroke-linecap:butt;stroke-linejoin:miter;stroke:rgb(0%,0%,0%);stroke-opacity:1;stroke-miterlimit:4;" d="M 244.827546 125.078125 L 220.845718 147.453125 C 213.644907 154.46875 207.64945 160.796875 202.060995 167.46875 C 196.472541 174.140625 191.306742 181.140625 188.144647 186.21875 C 184.982552 191.296875 183.808507 194.46875 183.401505 197.296875 C 182.978848 200.140625 183.307581 202.640625 185.201707 213.5625 C 187.095833 224.484375 190.555353 243.796875 194.969763 262.21875 C 199.384172 280.640625 204.769126 298.140625 210.138426 315.640625 M 247.081713 124.703125 C 242.526418 131.203125 237.798929 137.984375 233.556713 143.390625 C 229.314497 148.796875 225.479282 152.96875 221.972801 157.390625 C 218.481973 161.796875 215.319878 166.46875 212.643056 171.390625 C 209.981887 176.296875 207.80599 181.46875 206.318866 186.46875 C 204.816088 191.46875 203.986429 196.296875 203.814236 200.796875 C 203.642043 205.296875 204.142969 209.46875 205.066551 216.296875 L 208.557378 241.21875 L 213.143981 269.796875 L 221.644068 316.140625 M 266.962211 126.265625 L 286.952286 145.40625 C 293.151244 151.640625 298.645775 157.640625 304.062037 163.8125 C 309.478299 169.96875 314.816291 176.3125 318.808044 181.71875 C 322.815451 187.140625 325.47662 191.640625 325.977546 199.5625 C 326.478472 207.46875 324.819155 218.796875 322.627604 230.796875 C 320.451707 242.796875 317.806192 255.140625 314.205787 269.796875 C 310.605382 284.46875 306.14401 300.96875 301.651331 317.640625 M 262.078183 124.140625 L 278.29566 144.3125 C 282.803993 150.140625 285.981742 154.640625 290.223958 160.640625 C 294.481829 166.640625 299.804167 174.140625 302.887992 179.21875 C 305.971817 184.296875 306.81713 186.96875 307.584172 190.140625 C 308.335561 193.296875 308.977373 196.640625 309.274797 198.15625 C 309.572222 199.6875 309.493953 199.21875 309.431337 198.765625 M 259.150897 123.703125 L 275.978877 155.484375 L 285.230353 173.8125 C 287.171441 177.578125 288.235909 179.234375 289.409954 183 C 290.583999 186.78125 291.883275 192.671875 291.351042 206.8125 C 290.818808 220.953125 288.470718 243.34375 285.93478 263.265625 C 283.398843 283.171875 280.690712 300.609375 277.982581 318.0625 M 257.209809 123.078125 L 264.504543 149.734375 C 265.960359 155.546875 265.960359 156.71875 266.899595 160.84375 C 267.838831 164.984375 269.732957 172.046875 270.969618 176.875 C 272.206279 181.703125 272.785475 184.296875 273.082899 187.71875 C 273.380324 191.140625 273.380324 195.375 272.973322 208.171875 L 270.781771 261.78125 L 267.729253 316.640625 M 255.346991 123.015625 L 255.5818 159.578125 L 255.534838 204.921875 L 256.239265 263.734375 L 257.820312 318.0625 M 253.280671 122.953125 L 245.87636 154.375 C 243.684809 164.625 241.915914 174.515625 240.804485 180.40625 C 239.677402 186.296875 239.207784 188.1875 238.910359 190.484375 C 238.612934 192.78125 238.503356 195.5 238.910359 208.046875 L 241.383681 262.796875 L 245.093663 317 M 249.398495 124.265625 L 233.494097 157.828125 C 228.484838 168.265625 223.882581 177.578125 221.581453 184.53125 C 219.280324 191.484375 219.295978 196.078125 220.235214 209.109375 C 221.565799 227.09375 223.256424 245.046875 225.291435 262.953125 C 227.529948 282.328125 230.128501 299.671875 232.727054 317 " transform="matrix(0.249538,0,0,0.25,0,0)"/>
<path style="fill:none;stroke-width:1;stroke-linecap:butt;stroke-linejoin:miter;stroke:rgb(0%,0%,0%);stroke-opacity:1;stroke-miterlimit:4;" d="M 212.564786 155.421875 C 215.992998 156.25 219.405556 157.078125 223.178154 157.609375 C 226.950752 158.140625 231.067737 158.375 234.793374 158.484375 C 238.503356 158.609375 241.806337 158.609375 245.218895 158.546875 L 255.816609 158.3125 L 266.962211 158.078125 C 270.672193 157.90625 274.31956 157.546875 277.685156 157.375 C 281.050752 157.1875 284.10327 157.1875 287.171441 156.78125 C 290.239612 156.375 293.307784 155.546875 296.360301 154.71875 " transform="matrix(0.249538,0,0,0.25,0,0)"/>
<path style="fill:none;stroke-width:1.006;stroke-linecap:butt;stroke-linejoin:miter;stroke:rgb(0%,0%,0%);stroke-opacity:1;stroke-miterlimit:4;" d="M 183.260619 198.203125 L 325.899277 199.421875 " transform="matrix(0.249538,0,0,0.25,0,0)"/>
<path style="fill:none;stroke-width:1;stroke-linecap:butt;stroke-linejoin:miter;stroke:rgb(0%,0%,0%);stroke-opacity:1;stroke-miterlimit:4;" d="M 302.825376 263.390625 L 290.145689 318.640625 " transform="matrix(0.249538,0,0,0.25,0,0)"/>
<path style="fill-rule:nonzero;fill:rgb(0%,0%,0%);fill-opacity:1;stroke-width:1.002;stroke-linecap:butt;stroke-linejoin:miter;stroke:rgb(0%,0%,0%);stroke-opacity:1;stroke-miterlimit:4;" d="M 291.773698 238.125 C 291.773698 235.546875 290.646615 233.453125 289.269068 233.453125 C 287.891522 233.453125 286.764439 235.546875 286.764439 238.125 C 286.764439 240.703125 287.891522 242.796875 289.269068 242.796875 C 290.646615 242.796875 291.773698 240.703125 291.773698 238.125 Z M 291.773698 238.125 " transform="matrix(0.249538,0,0,0.25,0,0)"/>
<path style="fill-rule:nonzero;fill:rgb(0%,0%,0%);fill-opacity:1;stroke-width:0.822;stroke-linecap:butt;stroke-linejoin:miter;stroke:rgb(0%,0%,0%);stroke-opacity:1;stroke-miterlimit:4;" d="M 260.058825 4.4375 C 260.058825 2.046875 257.867274 0.109375 255.159144 0.109375 C 252.451013 0.109375 250.259462 2.046875 250.259462 4.4375 C 250.259462 6.8125 252.451013 8.75 255.159144 8.75 C 257.867274 8.75 260.058825 6.8125 260.058825 4.4375 Z M 260.058825 4.4375 " transform="matrix(0.249538,0,0,0.25,0,0)"/>
<path style="fill-rule:nonzero;fill:rgb(0%,0%,0%);fill-opacity:1;stroke-width:1.002;stroke-linecap:butt;stroke-linejoin:miter;stroke:rgb(0%,0%,0%);stroke-opacity:1;stroke-miterlimit:4;" d="M 325.007002 164.578125 C 325.007002 162.421875 323.394647 160.6875 321.422251 160.6875 C 319.449855 160.6875 317.8375 162.421875 317.8375 164.578125 C 317.8375 166.71875 319.449855 168.453125 321.422251 168.453125 C 323.394647 168.453125 325.007002 166.71875 325.007002 164.578125 Z M 325.007002 164.578125 " transform="matrix(0.249538,0,0,0.25,0,0)"/>
<path style="fill-rule:nonzero;fill:rgb(0%,0%,0%);fill-opacity:1;stroke-width:1.002;stroke-linecap:butt;stroke-linejoin:miter;stroke:rgb(0%,0%,0%);stroke-opacity:1;stroke-miterlimit:4;" d="M 321.750984 168.0625 C 321.750984 171.453125 318.322772 179.34375 313.000434 179.34375 C 307.69375 179.34375 294.403559 206.578125 304.625579 183.09375 C 305.971817 179.984375 310.323611 170.203125 315.129369 167.9375 C 323.175492 164.15625 321.750984 164.671875 321.750984 168.0625 Z M 321.750984 168.0625 " transform="matrix(0.249538,0,0,0.25,0,0)"/>
<path style="fill:none;stroke-width:1;stroke-linecap:butt;stroke-linejoin:miter;stroke:rgb(0%,0%,0%);stroke-opacity:1;stroke-miterlimit:4;" d="M 325.007002 163.453125 C 326.666319 164.078125 328.341291 164.703125 328.341291 165.015625 C 328.341291 165.328125 326.666319 165.328125 325.007002 165.328125 M 314.722367 177.375 C 314.503212 179.015625 314.284057 180.65625 315.004138 181.328125 C 315.724219 182.015625 317.352228 181.734375 318.995891 181.453125 M 316.00599 176.453125 C 315.708565 177.859375 315.41114 179.265625 315.739873 179.9375 C 316.068605 180.609375 317.039149 180.53125 317.994039 180.453125 M 317.994039 180.453125 C 318.667159 180.453125 319.340278 180.453125 319.496817 180.625 C 319.66901 180.78125 319.340278 181.125 319.496817 181.28125 C 319.66901 181.453125 320.18559 181.453125 320.389091 181.65625 C 320.592593 181.859375 320.34213 182.109375 319.997743 182.453125 M 325.147888 199.640625 L 359.28912 206.15625 L 359.28912 217.65625 L 358.240307 231.09375 L 354.342477 250.53125 L 351.336921 260.96875 L 347.282552 273.15625 L 330.125839 268.203125 L 315.207639 263.546875 L 325.147888 199.640625 " transform="matrix(0.249538,0,0,0.25,0,0)"/>
<path style="fill:none;stroke-width:1;stroke-linecap:butt;stroke-linejoin:miter;stroke:rgb(0%,0%,0%);stroke-opacity:1;stroke-miterlimit:4;" d="M 342.680295 202.984375 L 340.03478 236.21875 L 336.496991 253.1875 L 331.3625 268.921875 " transform="matrix(0.249538,0,0,0.25,0,0)"/>
<path style="fill-rule:nonzero;fill:rgb(0%,0%,0%);fill-opacity:1;stroke-width:1;stroke-linecap:butt;stroke-linejoin:miter;stroke:rgb(0%,0%,0%);stroke-opacity:1;stroke-miterlimit:4;" d="M 357.410648 239.046875 C 358.177691 238.21875 359.539583 237.03125 360.91713 236.765625 C 362.294676 236.515625 363.719184 237.15625 364.157494 238.3125 C 364.595804 239.453125 364.063571 241.109375 362.592101 241.546875 C 361.120631 241.984375 358.709925 241.21875 358.803848 241.546875 C 358.882118 241.875 361.480671 243.28125 362.795602 244.671875 C 364.126186 246.046875 364.188802 247.40625 363.593953 248.0625 C 363.014757 248.703125 361.778096 248.640625 361.058015 248.171875 C 360.353588 247.703125 360.181395 246.8125 359.476968 245.53125 L 357.003646 241.421875 C 356.471412 240.34375 356.643605 239.859375 357.410648 239.046875 Z M 357.410648 239.046875 " transform="matrix(0.249538,0,0,0.25,0,0)"/>
<path style="fill-rule:nonzero;fill:url(#pattern0);stroke-width:1.235;stroke-linecap:butt;stroke-linejoin:miter;stroke:rgb(0%,0%,0%);stroke-opacity:1;stroke-miterlimit:4;" d="M -0.469794 256.594559 L -26.165338 256.594559 L -26.165338 300.123099 L -67.37487 300.123099 L -67.37487 256.594559 L -143.204919 256.594559 L -153.160936 241.305671 L -89.02679 101.230919 L -80.117927 101.230919 L -46.544563 117.081563 L -95.051952 206.689323 L -106.506204 226.259706 L -67.37487 226.259706 L -62.976824 183.186644 L -26.165338 183.186644 L -26.165338 226.259706 L -0.469794 226.259706 Z M -0.469794 256.594559 " transform="matrix(0.242473,0,0,0.257285,42.457662,0.009541)"/>
<path style="fill-rule:nonzero;fill:url(#pattern1);stroke-width:1.235;stroke-linecap:butt;stroke-linejoin:miter;stroke:rgb(0%,0%,0%);stroke-opacity:1;stroke-miterlimit:4;" d="M 147.560487 156.338703 L 121.848833 156.338703 L 121.848833 199.867243 L 80.639301 199.867243 L 80.639301 156.338703 L 4.809252 156.338703 L -5.146765 141.049815 L 58.987381 0.975064 L 67.912354 0.975064 L 101.485718 16.825708 L 52.978329 106.433467 L 41.507967 126.00385 L 80.639301 126.00385 L 85.037347 82.930788 L 121.848833 82.930788 L 121.848833 126.00385 L 147.560487 126.00385 Z M 147.560487 156.338703 " transform="matrix(0.242473,0,0,0.257285,94.314356,25.82335)"/>
</g>
</svg>
