<svg width="16" height="16" viewBox="0 0 16 16" fill="none" xmlns="http://www.w3.org/2000/svg">
<path d="M8.83341 4.50008C8.83341 4.03985 8.46031 3.66675 8.00008 3.66675C7.53985 3.66675 7.16675 4.03985 7.16675 4.50008C7.16675 4.96031 7.53985 5.33341 8.00008 5.33341C8.46031 5.33341 8.83341 4.96031 8.83341 4.50008Z" fill="#2E3B96"/>
<path d="M6.83341 6.66675C6.83341 6.29856 7.13189 6.00008 7.50008 6.00008H8.16675C8.53494 6.00008 8.83341 6.29856 8.83341 6.66675V10.6667H9.33341C9.7016 10.6667 10.0001 10.9652 10.0001 11.3334C10.0001 11.7016 9.7016 12.0001 9.33341 12.0001H7.00008C6.63189 12.0001 6.33341 11.7016 6.33341 11.3334C6.33341 10.9652 6.63189 10.6667 7.00008 10.6667H7.50008V7.33341C7.13189 7.33341 6.83341 7.03494 6.83341 6.66675Z" fill="#2E3B96"/>
<path fill-rule="evenodd" clip-rule="evenodd" d="M8.00008 0.666748C5.97524 0.666748 4.14099 1.48829 2.81463 2.81463C1.4883 4.14098 0.666748 5.97524 0.666748 8.00008C0.666748 10.0249 1.48829 11.8592 2.81463 13.1855C4.14098 14.5119 5.97523 15.3334 8.00008 15.3334C10.0249 15.3334 11.8592 14.5119 13.1855 13.1855C14.5119 11.8592 15.3334 10.0249 15.3334 8.00008C15.3334 5.97523 14.5119 4.14099 13.1855 2.81463C11.8592 1.4883 10.0249 0.666748 8.00008 0.666748ZM3.75744 3.75744C4.84397 2.67092 6.34306 2.00008 8.00008 2.00008C9.6571 2.00008 11.1562 2.67092 12.2427 3.75744C13.3292 4.84397 14.0001 6.34306 14.0001 8.00008C14.0001 9.6571 13.3292 11.1562 12.2427 12.2427C11.1562 13.3292 9.6571 14.0001 8.00008 14.0001C6.34306 14.0001 4.84397 13.3292 3.75744 12.2427C2.67092 11.1562 2.00008 9.6571 2.00008 8.00008C2.00008 6.34306 2.67092 4.84398 3.75744 3.75744Z" fill="#2E3B96"/>
</svg>
