<svg width="192" height="154" viewBox="0 0 192 154" fill="none" xmlns="http://www.w3.org/2000/svg">
<path opacity="0.204" d="M131.844 81.9329C100.297 70.3713 83.6218 30.6751 37.2377 57.3306C-9.14639 83.986 13.1936 132.624 59.4756 142.26C105.758 151.895 167.19 152.546 180.193 126.879C195.03 87.7371 153.007 89.6883 131.844 81.9329Z" fill="#96B7E0"/>
<path opacity="0.25" d="M160.074 81.8462H125.175V149.745H160.074V81.8462Z" fill="url(#paint0_linear)"/>
<path opacity="0.25" d="M107.764 56.1166V49.3306H91.246V56.1166H85.1064V132.176H113.946V56.1166H107.764Z" fill="#96B7E0"/>
<path opacity="0.25" d="M53.1976 84.5518H16.0776V149.784H53.1976V84.5518Z" fill="url(#paint1_linear)"/>
<path opacity="0.25" d="M124.004 56.1163H117.824V132.174H146.663V40.4443L124.004 56.1163Z" fill="url(#paint2_linear)"/>
<path opacity="0.5" d="M80.9468 49.8957V35.557H74.3224V22.5508H58.1253V35.557H51.5009V49.8957H42.332V149.745H90.1172V49.8957H80.9468Z" fill="url(#paint3_linear)"/>
<g opacity="0.5">
<g opacity="0.5">
<g opacity="0.5">
<path opacity="0.5" d="M52.1065 65.4072H47.0171V69.0829H52.1065V65.4072Z" fill="#C4DEFF"/>
<path opacity="0.5" d="M60.8321 65.4067H55.7427V69.0824H60.8321V65.4067Z" fill="#C4DEFF"/>
<path opacity="0.5" d="M69.3946 65.4067H64.3052V69.0824H69.3946V65.4067Z" fill="#C4DEFF"/>
<path opacity="0.5" d="M78.1192 65.4067H73.0298V69.0824H78.1192V65.4067Z" fill="#C4DEFF"/>
<path opacity="0.5" d="M86.6827 65.4067H81.5933V69.0824H86.6827V65.4067Z" fill="#C4DEFF"/>
</g>
<g opacity="0.5">
<path opacity="0.5" d="M52.1065 70.375H47.0171V74.0507H52.1065V70.375Z" fill="#C4DEFF"/>
<path opacity="0.5" d="M60.8321 70.375H55.7427V74.0507H60.8321V70.375Z" fill="#C4DEFF"/>
<path opacity="0.5" d="M69.3946 70.375H64.3052V74.0507H69.3946V70.375Z" fill="#C4DEFF"/>
<path opacity="0.5" d="M78.1192 70.375H73.0298V74.0507H78.1192V70.375Z" fill="#C4DEFF"/>
<path opacity="0.5" d="M86.6827 70.375H81.5933V74.0507H86.6827V70.375Z" fill="#C4DEFF"/>
</g>
<g opacity="0.5">
<path opacity="0.5" d="M52.1065 75.5444H47.0171V79.2201H52.1065V75.5444Z" fill="#C4DEFF"/>
<path opacity="0.5" d="M60.8321 75.5439H55.7427V79.2196H60.8321V75.5439Z" fill="#C4DEFF"/>
<path opacity="0.5" d="M69.3946 75.5439H64.3052V79.2196H69.3946V75.5439Z" fill="#C4DEFF"/>
<path opacity="0.5" d="M78.1192 75.5439H73.0298V79.2196H78.1192V75.5439Z" fill="#C4DEFF"/>
<path opacity="0.5" d="M86.6827 75.5439H81.5933V79.2196H86.6827V75.5439Z" fill="#C4DEFF"/>
</g>
</g>
<g opacity="0.5">
<g opacity="0.5">
<g opacity="0.5">
<g opacity="0.5">
<path opacity="0.5" d="M87.2084 68.1133H81.0688V69.0829H87.2084V68.1133Z" fill="#C4DEFF"/>
</g>
<g opacity="0.5">
<path opacity="0.5" d="M87.208 73.1626H81.0684V74.0512H87.208V73.1626Z" fill="#C4DEFF"/>
</g>
<g opacity="0.5">
<path opacity="0.5" d="M87.2075 78.291H81.0679V79.2607H87.2075V78.291Z" fill="#C4DEFF"/>
</g>
</g>
</g>
<g opacity="0.5">
<g opacity="0.5">
<g opacity="0.5">
<path opacity="0.5" d="M78.6044 68.1133H72.4648V69.0829H78.6044V68.1133Z" fill="#C4DEFF"/>
</g>
<g opacity="0.5">
<path opacity="0.5" d="M78.604 73.1626H72.4644V74.0512H78.604V73.1626Z" fill="#C4DEFF"/>
</g>
<g opacity="0.5">
<path opacity="0.5" d="M78.604 78.291H72.4644V79.2607H78.604V78.291Z" fill="#C4DEFF"/>
</g>
</g>
</g>
<g opacity="0.5">
<g opacity="0.5">
<g opacity="0.5">
<path opacity="0.5" d="M69.9204 68.1133H63.7808V69.0829H69.9204V68.1133Z" fill="#C4DEFF"/>
</g>
<g opacity="0.5">
<path opacity="0.5" d="M69.9199 73.1626H63.7803V74.0512H69.9199V73.1626Z" fill="#C4DEFF"/>
</g>
<g opacity="0.5">
<path opacity="0.5" d="M69.9194 78.291H63.7798V79.2607H69.9194V78.291Z" fill="#C4DEFF"/>
</g>
</g>
</g>
<g opacity="0.5">
<g opacity="0.5">
<g opacity="0.5">
<path opacity="0.5" d="M61.3569 68.1133H55.2173V69.0829H61.3569V68.1133Z" fill="#C4DEFF"/>
</g>
<g opacity="0.5">
<path opacity="0.5" d="M61.3564 73.1626H55.2168V74.0512H61.3564V73.1626Z" fill="#C4DEFF"/>
</g>
<g opacity="0.5">
<path opacity="0.5" d="M61.3569 78.291H55.2173V79.2607H61.3569V78.291Z" fill="#C4DEFF"/>
</g>
</g>
</g>
<g opacity="0.5">
<g opacity="0.5">
<g opacity="0.5">
<g opacity="0.5">
<path opacity="0.5" d="M52.6323 68.1138H46.4927V69.0834H52.6323V68.1138Z" fill="#C4DEFF"/>
</g>
</g>
<g opacity="0.5">
<g opacity="0.5">
<path opacity="0.5" d="M52.6318 73.1626H46.4922V74.0512H52.6318V73.1626Z" fill="#C4DEFF"/>
</g>
</g>
<g opacity="0.5">
<g opacity="0.5">
<path opacity="0.5" d="M52.6318 78.291H46.4922V79.2607H52.6318V78.291Z" fill="#C4DEFF"/>
</g>
</g>
</g>
</g>
</g>
<g opacity="0.5">
<g opacity="0.5">
<path opacity="0.5" d="M60.8719 46.0991H56.2271V49.4919H60.8719V46.0991Z" fill="#C4DEFF"/>
<path opacity="0.5" d="M68.8685 46.0991H64.2236V49.4919H68.8685V46.0991Z" fill="#C4DEFF"/>
<path opacity="0.5" d="M76.7054 46.0991H72.0605V49.4919H76.7054V46.0991Z" fill="#C4DEFF"/>
</g>
<g opacity="0.5">
<path opacity="0.5" d="M60.8709 50.6636H56.2261V54.0563H60.8709V50.6636Z" fill="#C4DEFF"/>
<path opacity="0.5" d="M68.8685 50.6636H64.2236V54.0563H68.8685V50.6636Z" fill="#C4DEFF"/>
<path opacity="0.5" d="M76.7049 50.6636H72.0601V54.0563H76.7049V50.6636Z" fill="#C4DEFF"/>
</g>
<g opacity="0.5">
<path opacity="0.5" d="M60.8709 55.3896H56.2261V58.7824H60.8709V55.3896Z" fill="#C4DEFF"/>
<path opacity="0.5" d="M68.8685 55.3896H64.2236V58.7824H68.8685V55.3896Z" fill="#C4DEFF"/>
<path opacity="0.5" d="M76.7049 55.3896H72.0601V58.7824H76.7049V55.3896Z" fill="#C4DEFF"/>
</g>
</g>
<g opacity="0.5">
<g opacity="0.5">
<g opacity="0.5">
<g opacity="0.5">
<path opacity="0.5" d="M77.1902 48.6035H71.5757V49.4921H77.1902V48.6035Z" fill="#C4DEFF"/>
</g>
<g opacity="0.5">
<path opacity="0.5" d="M77.1902 53.208H71.5757V54.0161H77.1902V53.208Z" fill="#C4DEFF"/>
</g>
<g opacity="0.5">
<path opacity="0.5" d="M77.1902 57.8936H71.5757V58.7821H77.1902V57.8936Z" fill="#C4DEFF"/>
</g>
</g>
</g>
<g opacity="0.5">
<g opacity="0.5">
<g opacity="0.5">
<path opacity="0.5" d="M69.3542 48.6035H63.7397V49.4921H69.3542V48.6035Z" fill="#C4DEFF"/>
</g>
<g opacity="0.5">
<path opacity="0.5" d="M69.3542 53.208H63.7397V54.0161H69.3542V53.208Z" fill="#C4DEFF"/>
</g>
<g opacity="0.5">
<path opacity="0.5" d="M69.3542 57.8936H63.7397V58.7821H69.3542V57.8936Z" fill="#C4DEFF"/>
</g>
</g>
</g>
<g opacity="0.5">
<g opacity="0.5">
<g opacity="0.5">
<g opacity="0.5">
<path opacity="0.5" d="M61.3572 48.6035H55.7427V49.4921H61.3572V48.6035Z" fill="#C4DEFF"/>
</g>
</g>
<g opacity="0.5">
<g opacity="0.5">
<path opacity="0.5" d="M61.3567 53.2075H55.7422V54.0156H61.3567V53.2075Z" fill="#C4DEFF"/>
</g>
</g>
<g opacity="0.5">
<g opacity="0.5">
<path opacity="0.5" d="M61.3567 57.8931H55.7422V58.7817H61.3567V57.8931Z" fill="#C4DEFF"/>
</g>
</g>
</g>
</g>
</g>
<g opacity="0.5">
<g opacity="0.5">
<path opacity="0.5" d="M52.1065 82.0474H47.0171V85.7231H52.1065V82.0474Z" fill="#C4DEFF"/>
<path opacity="0.5" d="M60.8321 82.0474H55.7427V85.7231H60.8321V82.0474Z" fill="#C4DEFF"/>
<path opacity="0.5" d="M69.3946 82.0474H64.3052V85.7231H69.3946V82.0474Z" fill="#C4DEFF"/>
<path opacity="0.5" d="M78.1192 82.0474H73.0298V85.7231H78.1192V82.0474Z" fill="#C4DEFF"/>
<path opacity="0.5" d="M86.6827 82.0474H81.5933V85.7231H86.6827V82.0474Z" fill="#C4DEFF"/>
</g>
<g opacity="0.5">
<path opacity="0.5" d="M52.1065 87.0161H47.0171V90.6918H52.1065V87.0161Z" fill="#C4DEFF"/>
<path opacity="0.5" d="M60.8321 87.0156H55.7427V90.6913H60.8321V87.0156Z" fill="#C4DEFF"/>
<path opacity="0.5" d="M69.3946 87.0156H64.3052V90.6913H69.3946V87.0156Z" fill="#C4DEFF"/>
<path opacity="0.5" d="M78.1192 87.0156H73.0298V90.6913H78.1192V87.0156Z" fill="#C4DEFF"/>
<path opacity="0.5" d="M86.6827 87.0156H81.5933V90.6913H86.6827V87.0156Z" fill="#C4DEFF"/>
</g>
<g opacity="0.5">
<path opacity="0.5" d="M52.1065 92.186H47.0171V95.8617H52.1065V92.186Z" fill="#C4DEFF"/>
<path opacity="0.5" d="M60.8321 92.186H55.7427V95.8617H60.8321V92.186Z" fill="#C4DEFF"/>
<path opacity="0.5" d="M69.3946 92.186H64.3052V95.8617H69.3946V92.186Z" fill="#C4DEFF"/>
<path opacity="0.5" d="M78.1192 92.186H73.0298V95.8617H78.1192V92.186Z" fill="#C4DEFF"/>
<path opacity="0.5" d="M86.6827 92.186H81.5933V95.8617H86.6827V92.186Z" fill="#C4DEFF"/>
</g>
</g>
<g opacity="0.5">
<g opacity="0.5">
<g opacity="0.5">
<g opacity="0.5">
<path opacity="0.5" d="M87.2084 84.7539H81.0688V85.7236H87.2084V84.7539Z" fill="#C4DEFF"/>
</g>
<g opacity="0.5">
<path opacity="0.5" d="M87.208 89.8027H81.0684V90.6913H87.208V89.8027Z" fill="#C4DEFF"/>
</g>
<g opacity="0.5">
<path opacity="0.5" d="M87.208 94.9326H81.0684V95.9023H87.208V94.9326Z" fill="#C4DEFF"/>
</g>
</g>
</g>
<g opacity="0.5">
<g opacity="0.5">
<g opacity="0.5">
<path opacity="0.5" d="M78.6044 84.7539H72.4648V85.7236H78.6044V84.7539Z" fill="#C4DEFF"/>
</g>
<g opacity="0.5">
<path opacity="0.5" d="M78.6044 89.8027H72.4648V90.6913H78.6044V89.8027Z" fill="#C4DEFF"/>
</g>
<g opacity="0.5">
<path opacity="0.5" d="M78.6044 94.9326H72.4648V95.9023H78.6044V94.9326Z" fill="#C4DEFF"/>
</g>
</g>
</g>
<g opacity="0.5">
<g opacity="0.5">
<g opacity="0.5">
<path opacity="0.5" d="M69.9204 84.7539H63.7808V85.7236H69.9204V84.7539Z" fill="#C4DEFF"/>
</g>
<g opacity="0.5">
<path opacity="0.5" d="M69.9199 89.8027H63.7803V90.6913H69.9199V89.8027Z" fill="#C4DEFF"/>
</g>
<g opacity="0.5">
<path opacity="0.5" d="M69.9199 94.9326H63.7803V95.9023H69.9199V94.9326Z" fill="#C4DEFF"/>
</g>
</g>
</g>
<g opacity="0.5">
<g opacity="0.5">
<g opacity="0.5">
<path opacity="0.5" d="M61.3569 84.7539H55.2173V85.7236H61.3569V84.7539Z" fill="#C4DEFF"/>
</g>
<g opacity="0.5">
<path opacity="0.5" d="M61.3564 89.8027H55.2168V90.6913H61.3564V89.8027Z" fill="#C4DEFF"/>
</g>
<g opacity="0.5">
<path opacity="0.5" d="M61.3564 94.9326H55.2168V95.9023H61.3564V94.9326Z" fill="#C4DEFF"/>
</g>
</g>
</g>
<g opacity="0.5">
<g opacity="0.5">
<g opacity="0.5">
<g opacity="0.5">
<path opacity="0.5" d="M52.6323 84.7539H46.4927V85.7236H52.6323V84.7539Z" fill="#C4DEFF"/>
</g>
</g>
<g opacity="0.5">
<g opacity="0.5">
<path opacity="0.5" d="M52.6318 89.8027H46.4922V90.6913H52.6318V89.8027Z" fill="#C4DEFF"/>
</g>
</g>
<g opacity="0.5">
<g opacity="0.5">
<path opacity="0.5" d="M52.6318 94.9326H46.4922V95.9023H52.6318V94.9326Z" fill="#C4DEFF"/>
</g>
</g>
</g>
</g>
</g>
<g opacity="0.5">
<g opacity="0.5">
<path opacity="0.5" d="M52.1065 98.6489H47.0171V102.325H52.1065V98.6489Z" fill="#C4DEFF"/>
<path opacity="0.5" d="M60.8321 98.6489H55.7427V102.325H60.8321V98.6489Z" fill="#C4DEFF"/>
<path opacity="0.5" d="M69.3946 98.6489H64.3052V102.325H69.3946V98.6489Z" fill="#C4DEFF"/>
<path opacity="0.5" d="M78.1192 98.6489H73.0298V102.325H78.1192V98.6489Z" fill="#C4DEFF"/>
<path opacity="0.5" d="M86.6827 98.6489H81.5933V102.325H86.6827V98.6489Z" fill="#C4DEFF"/>
</g>
<g opacity="0.5">
<path opacity="0.5" d="M52.107 103.657H47.0176V107.333H52.107V103.657Z" fill="#C4DEFF"/>
<path opacity="0.5" d="M60.8326 103.657H55.7432V107.333H60.8326V103.657Z" fill="#C4DEFF"/>
<path opacity="0.5" d="M69.3951 103.657H64.3057V107.333H69.3951V103.657Z" fill="#C4DEFF"/>
<path opacity="0.5" d="M78.1197 103.657H73.0303V107.333H78.1197V103.657Z" fill="#C4DEFF"/>
<path opacity="0.5" d="M86.6827 103.657H81.5933V107.333H86.6827V103.657Z" fill="#C4DEFF"/>
</g>
<g opacity="0.5">
<path opacity="0.5" d="M52.1065 108.829H47.0171V112.504H52.1065V108.829Z" fill="#C4DEFF"/>
<path opacity="0.5" d="M60.8321 108.828H55.7427V112.504H60.8321V108.828Z" fill="#C4DEFF"/>
<path opacity="0.5" d="M69.3946 108.828H64.3052V112.504H69.3946V108.828Z" fill="#C4DEFF"/>
<path opacity="0.5" d="M78.1192 108.828H73.0298V112.504H78.1192V108.828Z" fill="#C4DEFF"/>
<path opacity="0.5" d="M86.6827 108.828H81.5933V112.504H86.6827V108.828Z" fill="#C4DEFF"/>
</g>
</g>
<g opacity="0.5">
<g opacity="0.5">
<g opacity="0.5">
<g opacity="0.5">
<path opacity="0.5" d="M87.2084 101.396H81.0688V102.365H87.2084V101.396Z" fill="#C4DEFF"/>
</g>
<g opacity="0.5">
<path opacity="0.5" d="M87.208 106.444H81.0684V107.333H87.208V106.444Z" fill="#C4DEFF"/>
</g>
<g opacity="0.5">
<path opacity="0.5" d="M87.2075 111.533H81.0679V112.502H87.2075V111.533Z" fill="#C4DEFF"/>
</g>
</g>
</g>
<g opacity="0.5">
<g opacity="0.5">
<g opacity="0.5">
<path opacity="0.5" d="M78.6044 101.396H72.4648V102.365H78.6044V101.396Z" fill="#C4DEFF"/>
</g>
<g opacity="0.5">
<path opacity="0.5" d="M78.604 106.444H72.4644V107.333H78.604V106.444Z" fill="#C4DEFF"/>
</g>
<g opacity="0.5">
<path opacity="0.5" d="M78.604 111.533H72.4644V112.502H78.604V111.533Z" fill="#C4DEFF"/>
</g>
</g>
</g>
<g opacity="0.5">
<g opacity="0.5">
<g opacity="0.5">
<path opacity="0.5" d="M69.9204 101.396H63.7808V102.365H69.9204V101.396Z" fill="#C4DEFF"/>
</g>
<g opacity="0.5">
<path opacity="0.5" d="M69.9199 106.444H63.7803V107.333H69.9199V106.444Z" fill="#C4DEFF"/>
</g>
<g opacity="0.5">
<path opacity="0.5" d="M69.9194 111.533H63.7798V112.502H69.9194V111.533Z" fill="#C4DEFF"/>
</g>
</g>
</g>
<g opacity="0.5">
<g opacity="0.5">
<g opacity="0.5">
<path opacity="0.5" d="M61.3569 101.396H55.2173V102.365H61.3569V101.396Z" fill="#C4DEFF"/>
</g>
<g opacity="0.5">
<path opacity="0.5" d="M61.3564 106.444H55.2168V107.333H61.3564V106.444Z" fill="#C4DEFF"/>
</g>
<g opacity="0.5">
<path opacity="0.5" d="M61.3569 111.533H55.2173V112.502H61.3569V111.533Z" fill="#C4DEFF"/>
</g>
</g>
</g>
<g opacity="0.5">
<g opacity="0.5">
<g opacity="0.5">
<g opacity="0.5">
<path opacity="0.5" d="M52.6323 101.395H46.4927V102.364H52.6323V101.395Z" fill="#C4DEFF"/>
</g>
</g>
<g opacity="0.5">
<g opacity="0.5">
<path opacity="0.5" d="M52.6318 106.443H46.4922V107.331H52.6318V106.443Z" fill="#C4DEFF"/>
</g>
</g>
<g opacity="0.5">
<g opacity="0.5">
<path opacity="0.5" d="M52.6318 111.533H46.4922V112.502H52.6318V111.533Z" fill="#C4DEFF"/>
</g>
</g>
</g>
</g>
</g>
</g>
<path opacity="0.5" d="M126.831 65.5273H98.1128V149.744H126.831V65.5273Z" fill="#96B7E0"/>
<g opacity="0.996">
<g opacity="0.996">
<g opacity="0.996">
<g opacity="0.996">
<g opacity="0.996">
<path opacity="0.996" d="M107.727 70.981H102.153V73.3235H107.727V70.981Z" fill="#BBD0ED"/>
</g>
<g opacity="0.996">
<path opacity="0.996" d="M107.726 76.6348H102.152V78.9773H107.726V76.6348Z" fill="#BBD0ED"/>
</g>
<g opacity="0.996">
<path opacity="0.996" d="M107.726 82.2896H102.152V84.6321H107.726V82.2896Z" fill="#BBD0ED"/>
</g>
<g opacity="0.996">
<path opacity="0.996" d="M107.726 87.9443H102.152V90.2869H107.726V87.9443Z" fill="#BBD0ED"/>
</g>
<g opacity="0.996">
<path opacity="0.996" d="M107.726 93.5996H102.152V95.9422H107.726V93.5996Z" fill="#BBD0ED"/>
</g>
<g opacity="0.996">
<path opacity="0.996" d="M107.726 99.2944H102.152V101.637H107.726V99.2944Z" fill="#BBD0ED"/>
</g>
<g opacity="0.996">
<path opacity="0.996" d="M107.726 104.95H102.152V107.292H107.726V104.95Z" fill="#BBD0ED"/>
</g>
<g opacity="0.996">
<path opacity="0.996" d="M107.726 110.604H102.152V112.947H107.726V110.604Z" fill="#BBD0ED"/>
</g>
<g opacity="0.996">
<path opacity="0.996" d="M107.726 116.259H102.152V118.601H107.726V116.259Z" fill="#BBD0ED"/>
</g>
</g>
<g opacity="0.996">
<g opacity="0.996">
<path opacity="0.996" d="M115.683 70.9795H110.109V73.322H115.683V70.9795Z" fill="#BBD0ED"/>
</g>
<g opacity="0.996">
<path opacity="0.996" d="M115.683 76.6338H110.109V78.9763H115.683V76.6338Z" fill="#BBD0ED"/>
</g>
<g opacity="0.996">
<path opacity="0.996" d="M115.683 82.2891H110.109V84.6316H115.683V82.2891Z" fill="#BBD0ED"/>
</g>
<g opacity="0.996">
<path opacity="0.996" d="M115.683 87.9434H110.109V90.2859H115.683V87.9434Z" fill="#BBD0ED"/>
</g>
<g opacity="0.996">
<path opacity="0.996" d="M115.683 93.5986H110.109V95.9412H115.683V93.5986Z" fill="#BBD0ED"/>
</g>
<g opacity="0.996">
<path opacity="0.996" d="M115.683 99.2939H110.109V101.636H115.683V99.2939Z" fill="#BBD0ED"/>
</g>
<g opacity="0.996">
<path opacity="0.996" d="M115.683 104.949H110.109V107.291H115.683V104.949Z" fill="#BBD0ED"/>
</g>
<g opacity="0.996">
<path opacity="0.996" d="M115.683 110.604H110.109V112.946H115.683V110.604Z" fill="#BBD0ED"/>
</g>
<g opacity="0.996">
<path opacity="0.996" d="M115.683 116.258H110.109V118.601H115.683V116.258Z" fill="#BBD0ED"/>
</g>
</g>
<g opacity="0.996">
<g opacity="0.996">
<path opacity="0.996" d="M123.681 70.9795H118.106V73.322H123.681V70.9795Z" fill="#BBD0ED"/>
</g>
<g opacity="0.996">
<path opacity="0.996" d="M123.681 76.6343H118.107V78.9768H123.681V76.6343Z" fill="#BBD0ED"/>
</g>
<g opacity="0.996">
<path opacity="0.996" d="M123.681 82.2886H118.107V84.6311H123.681V82.2886Z" fill="#BBD0ED"/>
</g>
<g opacity="0.996">
<path opacity="0.996" d="M123.681 87.9438H118.107V90.2864H123.681V87.9438Z" fill="#BBD0ED"/>
</g>
<g opacity="0.996">
<path opacity="0.996" d="M123.681 93.5986H118.107V95.9412H123.681V93.5986Z" fill="#BBD0ED"/>
</g>
<g opacity="0.996">
<path opacity="0.996" d="M123.681 99.2935H118.107V101.636H123.681V99.2935Z" fill="#BBD0ED"/>
</g>
<g opacity="0.996">
<path opacity="0.996" d="M123.681 104.949H118.107V107.291H123.681V104.949Z" fill="#BBD0ED"/>
</g>
<g opacity="0.996">
<path opacity="0.996" d="M123.681 110.603H118.107V112.946H123.681V110.603Z" fill="#BBD0ED"/>
</g>
<g opacity="0.996">
<path opacity="0.996" d="M123.681 116.258H118.107V118.601H123.681V116.258Z" fill="#BBD0ED"/>
</g>
</g>
</g>
<g opacity="0.996">
<g opacity="0.996">
<g opacity="0.996">
<g opacity="0.996">
<path opacity="0.996" d="M103.526 70.981H102.153V73.3235H103.526V70.981Z" fill="#BBD0ED"/>
</g>
<g opacity="0.996">
<path opacity="0.996" d="M103.525 76.6348H102.152V78.9773H103.525V76.6348Z" fill="#BBD0ED"/>
</g>
<g opacity="0.996">
<path opacity="0.996" d="M103.525 82.2896H102.152V84.6321H103.525V82.2896Z" fill="#BBD0ED"/>
</g>
<g opacity="0.996">
<path opacity="0.996" d="M103.525 87.9443H102.152V90.2869H103.525V87.9443Z" fill="#BBD0ED"/>
</g>
<g opacity="0.996">
<path opacity="0.996" d="M103.525 93.5996H102.152V95.9422H103.525V93.5996Z" fill="#BBD0ED"/>
</g>
<g opacity="0.996">
<path opacity="0.996" d="M103.525 99.2944H102.152V101.637H103.525V99.2944Z" fill="#BBD0ED"/>
</g>
<g opacity="0.996">
<path opacity="0.996" d="M103.525 104.95H102.152V107.292H103.525V104.95Z" fill="#BBD0ED"/>
</g>
<g opacity="0.996">
<path opacity="0.996" d="M103.525 110.604H102.152V112.947H103.525V110.604Z" fill="#BBD0ED"/>
</g>
<g opacity="0.996">
<path opacity="0.996" d="M103.525 116.259H102.152V118.601H103.525V116.259Z" fill="#BBD0ED"/>
</g>
</g>
<g opacity="0.996">
<g opacity="0.996">
<path opacity="0.996" d="M111.482 70.9795H110.109V73.322H111.482V70.9795Z" fill="#BBD0ED"/>
</g>
<g opacity="0.996">
<path opacity="0.996" d="M111.482 76.6338H110.109V78.9763H111.482V76.6338Z" fill="#BBD0ED"/>
</g>
<g opacity="0.996">
<path opacity="0.996" d="M111.482 82.2891H110.109V84.6316H111.482V82.2891Z" fill="#BBD0ED"/>
</g>
<g opacity="0.996">
<path opacity="0.996" d="M111.482 87.9434H110.109V90.2859H111.482V87.9434Z" fill="#BBD0ED"/>
</g>
<g opacity="0.996">
<path opacity="0.996" d="M111.482 93.5986H110.109V95.9412H111.482V93.5986Z" fill="#BBD0ED"/>
</g>
<g opacity="0.996">
<path opacity="0.996" d="M111.482 99.2939H110.109V101.636H111.482V99.2939Z" fill="#BBD0ED"/>
</g>
<g opacity="0.996">
<path opacity="0.996" d="M111.482 104.949H110.109V107.291H111.482V104.949Z" fill="#BBD0ED"/>
</g>
<g opacity="0.996">
<path opacity="0.996" d="M111.482 110.604H110.109V112.946H111.482V110.604Z" fill="#BBD0ED"/>
</g>
<g opacity="0.996">
<path opacity="0.996" d="M111.482 116.258H110.109V118.601H111.482V116.258Z" fill="#BBD0ED"/>
</g>
</g>
<g opacity="0.996">
<g opacity="0.996">
<path opacity="0.996" d="M119.359 70.9795H118.106V73.322H119.359V70.9795Z" fill="#BBD0ED"/>
</g>
<g opacity="0.996">
<path opacity="0.996" d="M119.359 76.6343H118.107V78.9768H119.359V76.6343Z" fill="#BBD0ED"/>
</g>
<g opacity="0.996">
<path opacity="0.996" d="M119.359 82.2886H118.107V84.6311H119.359V82.2886Z" fill="#BBD0ED"/>
</g>
<g opacity="0.996">
<path opacity="0.996" d="M119.359 87.9438H118.107V90.2864H119.359V87.9438Z" fill="#BBD0ED"/>
</g>
<g opacity="0.996">
<path opacity="0.996" d="M119.359 93.5986H118.107V95.9412H119.359V93.5986Z" fill="#BBD0ED"/>
</g>
<g opacity="0.996">
<path opacity="0.996" d="M119.359 99.2935H118.107V101.636H119.359V99.2935Z" fill="#BBD0ED"/>
</g>
<g opacity="0.996">
<path opacity="0.996" d="M119.359 104.949H118.107V107.291H119.359V104.949Z" fill="#BBD0ED"/>
</g>
<g opacity="0.996">
<path opacity="0.996" d="M119.359 110.603H118.107V112.946H119.359V110.603Z" fill="#BBD0ED"/>
</g>
<g opacity="0.996">
<path opacity="0.996" d="M119.359 116.258H118.107V118.601H119.359V116.258Z" fill="#BBD0ED"/>
</g>
</g>
</g>
</g>
</g>
</g>
<path opacity="0.5" d="M171.465 96.5488H137.737V149.745H171.465V96.5488Z" fill="url(#paint4_linear)"/>
<g opacity="0.5">
<g opacity="0.5">
<g opacity="0.5">
<g opacity="0.5">
<path opacity="0.5" d="M148.683 104.466H144.523V112.463H148.683V104.466Z" fill="#B8CBEC"/>
</g>
<g opacity="0.5">
<path opacity="0.5" d="M148.683 116.3H144.522V124.298H148.683V116.3Z" fill="#B8CBEC"/>
</g>
<g opacity="0.5">
<path opacity="0.5" d="M148.683 128.135H144.522V136.133H148.683V128.135Z" fill="#B8CBEC"/>
</g>
<g opacity="0.5">
<path opacity="0.5" d="M148.683 140.01H144.522V148.008H148.683V140.01Z" fill="#B8CBEC"/>
</g>
</g>
<g opacity="0.5">
<g opacity="0.5">
<path opacity="0.5" d="M157.206 104.466H153.045V112.463H157.206V104.466Z" fill="#B8CBEC"/>
</g>
<g opacity="0.5">
<path opacity="0.5" d="M157.205 116.3H153.045V124.298H157.205V116.3Z" fill="#B8CBEC"/>
</g>
<g opacity="0.5">
<path opacity="0.5" d="M157.205 128.135H153.045V136.133H157.205V128.135Z" fill="#B8CBEC"/>
</g>
<g opacity="0.5">
<path opacity="0.5" d="M157.205 140.01H153.045V148.008H157.205V140.01Z" fill="#B8CBEC"/>
</g>
</g>
<g opacity="0.5">
<g opacity="0.5">
<path opacity="0.5" d="M165.769 104.466H161.608V112.463H165.769V104.466Z" fill="#B8CBEC"/>
</g>
<g opacity="0.5">
<path opacity="0.5" d="M165.768 116.3H161.608V124.298H165.768V116.3Z" fill="#B8CBEC"/>
</g>
<g opacity="0.5">
<path opacity="0.5" d="M165.768 128.135H161.608V136.133H165.768V128.135Z" fill="#B8CBEC"/>
</g>
<g opacity="0.5">
<path opacity="0.5" d="M165.768 140.01H161.608V148.008H165.768V140.01Z" fill="#B8CBEC"/>
</g>
</g>
</g>
</g>
<path opacity="0.5" d="M40.7163 107.575H7.59521V110.484H8.36246V149.744H39.6645V110.484H40.7147L40.7163 107.575Z" fill="url(#paint5_linear)"/>
<g opacity="0.5">
<path opacity="0.5" d="M33.405 118.198H14.0171V121.874H33.405V118.198Z" fill="#C4DEFF"/>
<path opacity="0.5" d="M33.405 123.651H14.0171V127.327H33.405V123.651Z" fill="#C4DEFF"/>
<path opacity="0.5" d="M33.405 129.104H14.0171V132.78H33.405V129.104Z" fill="#C4DEFF"/>
<path opacity="0.5" d="M33.405 134.517H14.0171V138.192H33.405V134.517Z" fill="#C4DEFF"/>
<path opacity="0.5" d="M33.405 145.382H14.0171V149.058H33.405V145.382Z" fill="#C4DEFF"/>
<path opacity="0.5" d="M33.405 139.969H14.0171V143.644H33.405V139.969Z" fill="#C4DEFF"/>
<path opacity="0.5" d="M14.0172 117.754H13.0884V149.663H14.0172V117.754Z" fill="#C4DEFF"/>
<path opacity="0.5" d="M33.8498 117.875H32.9209V149.785H33.8498V117.875Z" fill="#C4DEFF"/>
</g>
<path opacity="0.5" d="M119.924 125.63V99.1738H89.994V125.63H77.7148V149.744H132.203V125.63H119.924Z" fill="url(#paint6_linear)"/>
<g opacity="0.5">
<g opacity="0.5">
<g opacity="0.5">
<path opacity="0.5" d="M125.782 133.467H84.1377V139.082H125.782V133.467Z" fill="#BACEEE"/>
</g>
<g opacity="0.5">
<path opacity="0.5" d="M125.782 141.788H84.1377V147.402H125.782V141.788Z" fill="#BACEEE"/>
</g>
<g opacity="0.5">
<g opacity="0.5">
<path opacity="0.5" d="M114.513 103.416H95.4072V109.03H114.513V103.416Z" fill="#BACEEE"/>
</g>
<g opacity="0.5">
<path opacity="0.5" d="M114.513 111.736H95.4072V117.351H114.513V111.736Z" fill="#BACEEE"/>
</g>
<g opacity="0.5">
<path opacity="0.5" d="M114.513 120.017H95.4072V125.631H114.513V120.017Z" fill="#BACEEE"/>
</g>
</g>
<g opacity="0.5">
<path opacity="0.5" d="M116.047 125.025H93.9126V126.237H116.047V125.025Z" fill="#BACEEE"/>
</g>
<g opacity="0.5">
<path opacity="0.5" d="M116.047 116.745H93.9126V117.957H116.047V116.745Z" fill="#BACEEE"/>
</g>
<g opacity="0.5">
<path opacity="0.5" d="M116.047 108.424H93.9126V109.636H116.047V108.424Z" fill="#BACEEE"/>
</g>
</g>
</g>
<path d="M129.416 92.1447V17.1777C129.416 15.6352 128.803 14.1561 127.712 13.0654C126.622 11.9747 125.143 11.3618 123.6 11.3613H55.4594C53.917 11.3618 52.4378 11.9747 51.3471 13.0654C50.2564 14.1561 49.6435 15.6352 49.6431 17.1777V107.291" stroke="#828E9F" stroke-miterlimit="10"/>
<path d="M56.2266 107.292V22.5498H122.833V92.1449" stroke="#828E9F" stroke-miterlimit="10"/>
<path d="M75.3727 16.935C75.3704 17.1054 75.4023 17.2744 75.4665 17.4322C75.5306 17.59 75.6257 17.7334 75.7462 17.8538C75.8667 17.9743 76.01 18.0694 76.1678 18.1336C76.3256 18.1977 76.4947 18.2296 76.665 18.2274H102.394C102.565 18.2295 102.734 18.1976 102.892 18.1334C103.049 18.0692 103.193 17.9741 103.313 17.8537C103.433 17.7332 103.529 17.5899 103.593 17.4321C103.657 17.2744 103.689 17.1053 103.687 16.935V16.935C103.689 16.7647 103.657 16.5957 103.593 16.4379C103.529 16.2802 103.433 16.1368 103.313 16.0164C103.193 15.8959 103.049 15.8008 102.892 15.7367C102.734 15.6725 102.565 15.6405 102.394 15.6427H76.665C76.323 15.6451 75.9957 15.782 75.7538 16.0238C75.512 16.2657 75.3751 16.593 75.3727 16.935V16.935Z" stroke="#828E9F" stroke-miterlimit="10"/>
<path d="M110.635 16.9349C110.635 17.1905 110.559 17.4404 110.417 17.6529C110.275 17.8654 110.073 18.0311 109.837 18.1289C109.601 18.2267 109.341 18.2523 109.091 18.2024C108.84 18.1526 108.61 18.0295 108.429 17.8488C108.248 17.668 108.125 17.4377 108.075 17.1871C108.025 16.9364 108.051 16.6765 108.149 16.4404C108.246 16.2042 108.412 16.0024 108.625 15.8604C108.837 15.7184 109.087 15.6426 109.343 15.6426C109.685 15.645 110.012 15.7819 110.254 16.0237C110.496 16.2656 110.633 16.5929 110.635 16.9349V16.9349Z" stroke="#828E9F" stroke-miterlimit="10"/>
<path d="M178.049 149.744V49.9761" stroke="#828E9F" stroke-miterlimit="10"/>
<path d="M178.049 124.943V49.9755C178.048 48.4331 177.435 46.9539 176.345 45.8632C175.254 44.7725 173.775 44.1596 172.232 44.1592H136.163" stroke="#828E9F" stroke-miterlimit="10"/>
<path d="M136.163 55.3481H171.465V149.744" stroke="#828E9F" stroke-miterlimit="10"/>
<path d="M136.163 51.0667H151.027C151.197 51.0689 151.366 51.0369 151.524 50.9728C151.682 50.9086 151.825 50.8135 151.946 50.693C152.066 50.5726 152.161 50.4293 152.225 50.2715C152.29 50.1137 152.322 49.9447 152.319 49.7744C152.322 49.6041 152.29 49.435 152.225 49.2773C152.161 49.1195 152.066 48.9762 151.946 48.8557C151.825 48.7353 151.682 48.6402 151.524 48.576C151.366 48.5118 151.197 48.4799 151.027 48.482H136.163" stroke="#828E9F" stroke-miterlimit="10"/>
<path d="M159.307 49.7333C159.307 49.9889 159.232 50.2387 159.09 50.4513C158.948 50.6638 158.746 50.8294 158.51 50.9272C158.273 51.025 158.014 51.0506 157.763 51.0008C157.512 50.9509 157.282 50.8278 157.101 50.6471C156.92 50.4663 156.797 50.2361 156.747 49.9854C156.698 49.7347 156.723 49.4748 156.821 49.2387C156.919 49.0026 157.084 48.8007 157.297 48.6587C157.51 48.5167 157.759 48.4409 158.015 48.4409C158.355 48.4501 158.678 48.5892 158.919 48.8296C159.159 49.07 159.298 49.3934 159.307 49.7333Z" stroke="#828E9F" stroke-miterlimit="10"/>
<path d="M1.01172 149.743V58.7407" stroke="#828E9F" stroke-miterlimit="10"/>
<path d="M1.0127 124.943V58.7412C1.01298 57.1987 1.62585 55.7194 2.71655 54.6286C3.80725 53.5378 5.2865 52.9247 6.82907 52.9243H42.8989" stroke="#828E9F" stroke-miterlimit="10"/>
<path d="M42.8982 64.1128H7.5957V149.743" stroke="#828E9F" stroke-miterlimit="10"/>
<path d="M42.8981 59.7909H28.0337C27.8633 59.793 27.6943 59.7611 27.5366 59.6969C27.3788 59.6327 27.2355 59.5376 27.115 59.4172C26.9946 59.2967 26.8995 59.1534 26.8353 58.9956C26.7711 58.8378 26.7392 58.6688 26.7413 58.4985V58.4985C26.7392 58.3282 26.7711 58.1592 26.8353 58.0014C26.8995 57.8436 26.9946 57.7003 27.115 57.5799C27.2355 57.4594 27.3788 57.3643 27.5366 57.3001C27.6943 57.2359 27.8633 57.204 28.0337 57.2062H42.8975" stroke="#828E9F" stroke-miterlimit="10"/>
<path d="M19.7539 58.4979C19.7539 58.7535 19.8297 59.0034 19.9717 59.2159C20.1137 59.4284 20.3156 59.5941 20.5517 59.6919C20.7878 59.7897 21.0477 59.8153 21.2984 59.7654C21.5491 59.7156 21.7793 59.5925 21.9601 59.4117C22.1408 59.231 22.2639 59.0007 22.3138 58.75C22.3636 58.4994 22.338 58.2395 22.2402 58.0033C22.1424 57.7672 21.9768 57.5654 21.7642 57.4234C21.5517 57.2814 21.3019 57.2056 21.0463 57.2056C20.7042 57.208 20.3769 57.3449 20.1351 57.5867C19.8932 57.8286 19.7563 58.1559 19.7539 58.4979V58.4979Z" stroke="#828E9F" stroke-miterlimit="10"/>
<path d="M149.368 84.5491C149.368 84.5491 149.207 84.3069 148.885 83.9048" stroke="white" stroke-miterlimit="10"/>
<path d="M147.875 82.6118C143.312 77.0375 128.649 61.931 110.634 72.9581C88.8226 86.3272 90.6809 57.2051 77.8766 57.2051C59.5389 57.2051 70.1214 92.2247 26.8618 94.4464" stroke="white" stroke-miterlimit="10" stroke-dasharray="4.03 4.03"/>
<path d="M26.0515 94.4868C25.7685 94.4868 25.5264 94.5271 25.2461 94.5271" stroke="white" stroke-miterlimit="10"/>
<path d="M151.228 84.5514C151.228 84.1759 151.116 83.8088 150.908 83.4966C150.699 83.1844 150.403 82.941 150.056 82.7973C149.709 82.6536 149.327 82.6161 148.959 82.6893C148.591 82.7626 148.252 82.9434 147.987 83.2089C147.721 83.4744 147.54 83.8127 147.467 84.181C147.394 84.5492 147.431 84.931 147.575 85.2779C147.719 85.6248 147.962 85.9213 148.274 86.1299C148.587 86.3385 148.954 86.4499 149.329 86.4499C149.579 86.4502 149.826 86.4012 150.056 86.3059C150.287 86.2106 150.496 86.0708 150.672 85.8944C150.849 85.7181 150.988 85.5087 151.084 85.2782C151.179 85.0478 151.228 84.8008 151.228 84.5514Z" fill="#1D4259"/>
<path d="M152.924 70.8584C152.074 70.0067 150.949 69.4862 149.749 69.3905C148.55 69.2948 147.356 69.6303 146.382 70.3364C145.409 71.0426 144.719 72.0732 144.437 73.2427C144.155 74.4122 144.3 75.6439 144.845 76.7161V76.7564C144.916 76.9186 145.011 77.0687 145.128 77.201L149.37 84.5121L153.612 77.201C153.697 77.0471 153.791 76.8986 153.895 76.7564V76.7161C154.369 75.7616 154.53 74.6819 154.356 73.6304C154.182 72.5789 153.681 71.609 152.924 70.8584ZM149.37 76.8364C148.898 76.8364 148.437 76.6966 148.045 76.4347C147.653 76.1728 147.348 75.8006 147.168 75.3651C146.987 74.9296 146.94 74.4504 147.032 73.9881C147.124 73.5257 147.351 73.1011 147.684 72.7678C148.018 72.4344 148.442 72.2074 148.905 72.1155C149.367 72.0235 149.846 72.0707 150.282 72.2511C150.717 72.4315 151.089 72.737 151.351 73.1289C151.613 73.5209 151.753 73.9817 151.753 74.453C151.756 74.7668 151.696 75.078 151.577 75.3684C151.458 75.6588 151.283 75.9227 151.061 76.1445C150.839 76.3664 150.575 76.5419 150.285 76.6607C149.994 76.7795 149.683 76.8392 149.37 76.8364Z" fill="#0CBAB4"/>
<path d="M78.0793 57.2057C78.0793 56.8302 77.9679 56.4631 77.7593 56.1509C77.5507 55.8387 77.2542 55.5953 76.9073 55.4516C76.5604 55.308 76.1786 55.2704 75.8104 55.3436C75.4421 55.4169 75.1038 55.5977 74.8383 55.8632C74.5728 56.1287 74.392 56.467 74.3187 56.8353C74.2455 57.2036 74.283 57.5853 74.4267 57.9322C74.5704 58.2791 74.8138 58.5756 75.126 58.7842C75.4382 58.9928 75.8053 59.1042 76.1807 59.1042C76.4301 59.1045 76.6771 59.0556 76.9076 58.9602C77.1381 58.8649 77.3475 58.7251 77.5238 58.5487C77.7002 58.3724 77.84 58.163 77.9353 57.9325C78.0306 57.7021 78.0795 57.4551 78.0793 57.2057Z" fill="#1D4259"/>
<path d="M79.7749 43.5537C78.9253 42.702 77.7997 42.1815 76.6005 42.0858C75.4014 41.9901 74.2074 42.3256 73.2335 43.0318C72.2596 43.7379 71.5697 44.7685 71.288 45.938C71.0062 47.1076 71.1511 48.3392 71.6966 49.4114V49.4517C71.7667 49.614 71.8622 49.7641 71.9795 49.8963L76.2211 57.2074L80.4627 49.8963C80.5478 49.7424 80.6423 49.5939 80.7457 49.4517V49.4114C81.2115 48.455 81.3683 47.3773 81.1943 46.3278C81.0204 45.2783 80.5244 44.3088 79.7749 43.5537ZM76.1776 49.4914C75.7062 49.4914 75.2454 49.3517 74.8535 49.0898C74.4616 48.8279 74.1561 48.4557 73.9757 48.0202C73.7953 47.5847 73.7481 47.1054 73.8401 46.6431C73.932 46.1808 74.159 45.7561 74.4923 45.4228C74.8257 45.0895 75.2503 44.8625 75.7126 44.7705C76.175 44.6786 76.6542 44.7258 77.0897 44.9062C77.5252 45.0865 77.8974 45.392 78.1593 45.784C78.4212 46.1759 78.561 46.6367 78.561 47.1081C78.5637 47.4216 78.504 47.7325 78.3853 48.0227C78.2667 48.3128 78.0915 48.5765 77.8699 48.7983C77.6483 49.0201 77.3848 49.1955 77.0947 49.3144C76.8047 49.4334 76.4938 49.4933 76.1803 49.4909L76.1776 49.4914Z" fill="url(#paint7_linear)"/>
<path d="M27.1042 94.5284C27.1042 94.1529 26.9928 93.7859 26.7842 93.4736C26.5756 93.1614 26.2791 92.9181 25.9322 92.7744C25.5853 92.6307 25.2035 92.5931 24.8353 92.6664C24.467 92.7396 24.1287 92.9204 23.8632 93.186C23.5977 93.4515 23.4169 93.7897 23.3436 94.158C23.2704 94.5263 23.308 94.908 23.4516 95.2549C23.5953 95.6018 23.8387 95.8984 24.1509 96.107C24.4631 96.3156 24.8302 96.4269 25.2056 96.4269C25.7051 96.4139 26.1804 96.2097 26.5337 95.8564C26.8869 95.5032 27.0911 95.0278 27.1042 94.5284Z" fill="#1D4259"/>
<path d="M28.8003 80.8355C27.9507 79.9838 26.8251 79.4633 25.6259 79.3676C24.4268 79.2719 23.2328 79.6073 22.2589 80.3135C21.285 81.0197 20.5951 82.0502 20.3134 83.2198C20.0316 84.3893 20.1765 85.621 20.7219 86.6932V86.7335C20.7921 86.8957 20.8876 87.0458 21.0049 87.178L25.2465 94.4892L29.4881 87.178C29.5732 87.0241 29.6677 86.8757 29.7711 86.7335V86.6932C30.2466 85.7389 30.4088 84.6589 30.2345 83.6071C30.0602 82.5553 29.5583 81.5853 28.8003 80.8355ZM25.246 86.8135C24.7746 86.8135 24.3138 86.6737 23.9218 86.4118C23.5299 86.1499 23.2244 85.7777 23.044 85.3422C22.8636 84.9067 22.8164 84.4275 22.9084 83.9651C23.0004 83.5028 23.2274 83.0781 23.5607 82.7448C23.894 82.4115 24.3187 82.1845 24.781 82.0925C25.2433 82.0006 25.7225 82.0478 26.158 82.2282C26.5935 82.4086 26.9658 82.714 27.2276 83.106C27.4895 83.4979 27.6293 83.9587 27.6293 84.4301C27.6282 85.0619 27.3767 85.6674 26.93 86.1141C26.4833 86.5608 25.8777 86.8123 25.246 86.8135Z" fill="#0CBAB4"/>
<path d="M1 13.9723C2.18183 12.605 3.43515 11.3012 4.75465 10.0662C7.32593 7.8547 10.2736 3.94543 19.7002 6.82704C20.4297 7.06328 21.1465 7.33695 21.8478 7.64692C22.679 7.99967 25.2534 8.00878 27.8897 5.91536C32.0776 2.5865 33.7179 0.0780514 39.458 0.000736024C46.1367 -0.0900022 47.1895 8.23538 52.3772 10.3664C55.6803 11.7226 64.396 13.0708 66.199 13.6716L1 13.9723Z" fill="#96B7E0"/>
<path d="M191.006 60.352C190.213 59.5627 189.379 58.8157 188.508 58.1142C186.797 56.847 184.836 54.6081 178.565 56.258C178.077 56.3869 177.605 56.5566 177.136 56.7278C176.582 56.9297 174.87 56.9351 173.116 55.7356C170.329 53.8291 169.239 52.3912 165.42 52.3466C160.977 52.2929 160.278 57.065 156.825 58.286C154.627 59.0634 148.829 59.8355 147.629 60.1797L191.006 60.352Z" fill="#96B7E0"/>
<defs>
<linearGradient id="paint0_linear" x1="142.624" y1="81.8462" x2="142.624" y2="149.745" gradientUnits="userSpaceOnUse">
<stop stop-color="#96B7E0"/>
<stop offset="1" stop-color="#3E5189"/>
</linearGradient>
<linearGradient id="paint1_linear" x1="34.6376" y1="84.5518" x2="34.6376" y2="149.784" gradientUnits="userSpaceOnUse">
<stop stop-color="#96B7E0"/>
<stop offset="1" stop-color="#3E5189"/>
</linearGradient>
<linearGradient id="paint2_linear" x1="132.244" y1="40.4443" x2="132.244" y2="132.174" gradientUnits="userSpaceOnUse">
<stop stop-color="#96B7E0"/>
<stop offset="1" stop-color="#3E5189"/>
</linearGradient>
<linearGradient id="paint3_linear" x1="66.2246" y1="22.5508" x2="66.2246" y2="149.745" gradientUnits="userSpaceOnUse">
<stop stop-color="#96B7E0"/>
<stop offset="1" stop-color="#3E5189"/>
</linearGradient>
<linearGradient id="paint4_linear" x1="154.601" y1="96.5488" x2="154.601" y2="149.745" gradientUnits="userSpaceOnUse">
<stop stop-color="#96B7E0"/>
<stop offset="1" stop-color="#3E5189"/>
</linearGradient>
<linearGradient id="paint5_linear" x1="24.1557" y1="107.575" x2="24.1557" y2="149.744" gradientUnits="userSpaceOnUse">
<stop stop-color="#96B7E0"/>
<stop offset="1" stop-color="#3E5189"/>
</linearGradient>
<linearGradient id="paint6_linear" x1="104.959" y1="99.1738" x2="104.959" y2="149.744" gradientUnits="userSpaceOnUse">
<stop stop-color="#A1CBED"/>
<stop offset="1" stop-color="#3E5189"/>
</linearGradient>
<linearGradient id="paint7_linear" x1="76.2054" y1="42.0698" x2="76.2054" y2="57.2074" gradientUnits="userSpaceOnUse">
<stop stop-color="#108E8A"/>
<stop offset="1" stop-color="#0CBAB4"/>
</linearGradient>
</defs>
</svg>
