<svg xmlns="http://www.w3.org/2000/svg" viewBox="0 0 798 370"><defs><style>.cls-1{font-size:100px;font-family:moonhouse;letter-spacing:0.15em;}.cls-2{fill:#fff;}</style></defs><g id="Layer_8" data-name="Layer 8"><text/><text class="cls-1" transform="translate(215.16 165.26) rotate(0.05)">blac</text><path d="M276.85,240.3l0,27-102.6-.08a43.41,43.41,0,0,1-17.32-3.5,44.11,44.11,0,0,1-23.49-23.53,43.31,43.31,0,0,1-3.48-17.33l.07-109,27,0-.07,109a17.29,17.29,0,0,0,17.31,17.34Z"/><path d="M324.73,267.36a26.33,26.33,0,0,1-10.65-2.16,27.69,27.69,0,0,1-8.69-5.9,28,28,0,0,1-5.9-8.71,26.49,26.49,0,0,1-2.14-10.65,26.88,26.88,0,0,1,2.16-10.7,27.21,27.21,0,0,1,5.91-8.69,28.4,28.4,0,0,1,8.7-5.85,26.49,26.49,0,0,1,10.65-2.14l40.9,0a26.84,26.84,0,0,1,10.7,2.15,28.3,28.3,0,0,1,8.75,5.86,27.24,27.24,0,0,1,5.89,8.71,26.84,26.84,0,0,1,2.14,10.7A26.33,26.33,0,0,1,391,250.67a27.8,27.8,0,0,1-14.66,14.58,26.67,26.67,0,0,1-10.7,2.15Zm40.91-12a15.09,15.09,0,0,0,6-1.2,15.58,15.58,0,0,0,4.9-3.29,15.75,15.75,0,0,0,3.31-4.9,15.66,15.66,0,0,0,0-12,15.49,15.49,0,0,0-8.2-8.21,15,15,0,0,0-6-1.2l-40.9,0a15.09,15.09,0,0,0-6,1.2,15.36,15.36,0,0,0-8.2,8.19,15.54,15.54,0,0,0,0,12,15.42,15.42,0,0,0,8.19,8.21,15.09,15.09,0,0,0,6,1.2Z"/><path d="M491.64,255.5v12l-61.6-.05a19.13,19.13,0,0,1-7.7-1.56,19.47,19.47,0,0,1-10.44-10.46,19.13,19.13,0,0,1-1.55-7.7l0-15.4a19.33,19.33,0,0,1,1.55-7.7,20.48,20.48,0,0,1,4.21-6.29,19.4,19.4,0,0,1,13.95-5.79l61.6.15v12l-61.6,0a7.67,7.67,0,0,0-7.7,7.69l0,15.4a7.7,7.7,0,0,0,7.7,7.71Z"/><path d="M544.4,174l82,.07,60.25-59.87,47,0L657,190.91l76.65,76.78-47,0-60.15-60.25-82-.07,0,60.2-33.6,0,.12-153.44,33.6,0Z"/></g><g id="Layer_9" data-name="Layer 9"><rect class="cls-2" x="143" y="128" width="3" height="21"/><rect class="cls-2" x="143" y="164" width="3" height="21"/><rect class="cls-2" x="143" y="201" width="3" height="21"/><rect class="cls-2" x="194" y="243" width="3" height="21" transform="translate(-58 449) rotate(-90)"/><rect class="cls-2" x="151.75" y="237.19" width="2.2" height="14.99" transform="translate(-133.62 210.51) rotate(-51.2)"/><rect class="cls-2" x="247" y="243" width="3" height="21" transform="translate(-5 502) rotate(-90)"/></g></svg>